<?xml version="1.0" encoding="utf-8"?>
<svg xmlns="http://www.w3.org/2000/svg" width="100" height="100">
	<path fill="#FF8CFA" d="M100 50c0 27.614-22.386 50-50 50s-50-22.386-50-50 22.386-50 50-50 50 22.386 50 50zm-50-45.75c-25.267 0-45.75 20.483-45.75 45.75s20.483 45.75 45.75 45.75 45.75-20.483 45.75-45.75-20.483-45.75-45.75-45.75z" />
	<circle fill="#FF8CFA" cx="50" cy="50" r="38.5" />
	<path fill="#C82864" d="M61.755 65.089l-29.344-29.344 5.834-5.834 29.344 29.344-5.834 5.834zm-23.51 0l-5.834-5.834 29.344-29.344 5.834 5.834-29.344 29.344z" />
	<path fill="#FBFBFB" d="M61.755 67.589l-29.344-29.344 5.834-5.834 29.344 29.344-5.834 5.834zm-23.51 0l-5.834-5.834 29.344-29.344 5.834 5.834-29.344 29.344z" />
</svg>