<?xml version="1.0" encoding="utf-8"?>
<svg xmlns="http://www.w3.org/2000/svg" width="100" height="100">
	<g>
		<path fill="#8CFFFA" d="M100 50c0 27.614-22.386 50-50 50s-50-22.386-50-50 22.386-50 50-50 50 22.386 50 50zm-50-45.75c-25.267 0-45.75 20.483-45.75 45.75s20.483 45.75 45.75 45.75 45.75-20.483 45.75-45.75-20.483-45.75-45.75-45.75z" />
		<circle fill="#8CFFFA" cx="50" cy="50" r="38.5" />
		<path fill="#3278BE" d="M70.75 47.5c0 11.46-9.29 20.75-20.75 20.75s-20.75-9.29-20.75-20.75 9.29-20.75 20.75-20.75 20.75 9.29 20.75 20.75zm-20.75-12c-6.627 0-12 5.373-12 12s5.373 12 12 12 12-5.373 12-12-5.373-12-12-12z" />
		<path fill="#FBFBFB" d="M70.75 50c0 11.46-9.29 20.75-20.75 20.75s-20.75-9.29-20.75-20.75 9.29-20.75 20.75-20.75 20.75 9.29 20.75 20.75zm-20.75-12c-6.627 0-12 5.373-12 12s5.373 12 12 12 12-5.373 12-12-5.373-12-12-12z" />
	</g>
</svg>